<svg width="32" height="23" viewBox="0 0 32 23" fill="none" xmlns="http://www.w3.org/2000/svg">
<path d="M11.3551 10.0008C11.154 9.99415 10.9536 10.0279 10.7659 10.1003C10.5781 10.1726 10.4068 10.2819 10.2622 10.4218C10.1176 10.5617 10.0026 10.7292 9.92407 10.9144C9.8455 11.0997 9.80505 11.2988 9.80505 11.5C9.80505 11.7012 9.8455 11.9003 9.92407 12.0856C10.0026 12.2708 10.1176 12.4383 10.2622 12.5782C10.4068 12.7181 10.5781 12.8274 10.7659 12.8998C10.9536 12.9721 11.154 13.0059 11.3551 12.9992C11.744 12.9862 12.1127 12.8226 12.3833 12.5428C12.6538 12.2631 12.8051 11.8891 12.8051 11.5C12.8051 11.1108 12.6538 10.7369 12.3833 10.4572C12.1127 10.1774 11.744 10.0138 11.3551 10.0008Z" stroke="#00C0E8" stroke-width="1.5"/>
<path d="M21.8051 11.5C21.8051 5.70044 17.3285 1 11.805 1C6.28164 1 1.80505 5.70044 1.80505 11.5C1.80505 17.2996 6.28164 22 11.805 22C17.3285 22 21.8051 17.2996 21.8051 11.5Z" stroke="#00C0E8" stroke-width="1.5"/>
<path d="M20.8051 1C23.192 1 25.4812 2.10625 27.1691 4.07539C28.8569 6.04454 29.8051 8.71529 29.8051 11.5C29.8051 14.2848 28.8569 16.9556 27.1691 18.9246C25.4812 20.8939 23.192 22 20.8051 22C24.0181 19.835 26.0017 15.8302 26.0017 11.5C26.0017 7.16981 24.0181 3.16511 20.8051 1Z" stroke="#FFCC00" stroke-width="1.5"/>
</svg>
