<svg width="16" height="16" viewBox="0 0 16 16" fill="none" xmlns="http://www.w3.org/2000/svg">
  <path
    d="M8.00001 6.80267C7.83932 6.79731 7.6792 6.82433 7.52917 6.88212C7.37914 6.93991 7.24227 7.02729 7.1267 7.13907C7.01114 7.25084 6.91924 7.38472 6.85647 7.53274C6.79371 7.68076 6.76137 7.83989 6.76137 8.00067C6.76137 8.16144 6.79371 8.32058 6.85647 8.4686C6.91924 8.61662 7.01114 8.7505 7.1267 8.86227C7.24227 8.97404 7.37914 9.06143 7.52917 9.11922C7.6792 9.17701 7.83932 9.20403 8.00001 9.19867C8.31082 9.1883 8.60543 9.05754 8.82164 8.834C9.03784 8.61047 9.1587 8.31165 9.1587 8.00067C9.1587 7.68968 9.03784 7.39087 8.82164 7.16734C8.60543 6.9438 8.31082 6.81304 8.00001 6.80267Z"
    fill="currentColor"
    stroke-width="1"
  />
  <path
    d="M14.6667 7.99996C14.6667 4.31769 11.6823 1.33329 8 1.33329C4.31773 1.33329 1.33333 4.31769 1.33333 7.99996C1.33333 11.6822 4.31773 14.6666 8 14.6666C11.6823 14.6666 14.6667 11.6822 14.6667 7.99996Z"
    stroke="currentColor"
    stroke-width="1"
    stroke-linejoin="miter"
  />
</svg>
